<svg xmlns="http://www.w3.org/2000/svg" fill="none" viewBox="0 0 418 417"><g clip-path="url(#a)"><mask id="b" width="418" height="417" x="0" y="0" maskUnits="userSpaceOnUse" style="mask-type:luminance"><path fill="#fff" d="M298.513.192H119.975C54.239.192.968 53.482.991 119.218l.062 178.538c.023 65.736 53.332 119.026 119.068 119.026h178.538c65.736 0 119.007-53.29 118.984-119.026l-.063-178.538C417.557 53.482 364.249.192 298.513.192Z"/></mask><g mask="url(#b)"><path fill="url(#c)" d="M.949.192h416.59l.146 416.59H1.095L.95.192Z"/><path stroke="#0064F2" stroke-miterlimit="10" stroke-width="1.986" d="M60.462.192H.949l.02 59.513M60.463.192l.02 59.513M60.463.192h59.513M60.483 59.705H.97m59.513 0h59.512m-59.512 0 .02 59.513M.97 59.705l.02 59.513M119.976.192l.02 59.513m-.02-59.513h59.512m-59.492 59.513h59.513m-59.513 0 .021 59.513M179.487.192l.021 59.513M179.487.192H239m-59.492 59.513h59.513m-59.513 0 .021 59.513M239 .192l.021 59.513M239 .192h59.513m-59.492 59.513h59.513m-59.513 0 .021 59.513M298.513.192l.021 59.513M298.513.192h59.513m-59.492 59.513h59.513m-59.513 0 .021 59.513M358.026.192l.021 59.513M358.026.192h59.513l.021 59.513m-59.513 0h59.513m-59.513 0 .021 59.513m59.492-59.513.02 59.513m-357.077 0H.991m59.513 0h59.512m-59.513 0 .021 59.513M.991 119.218l.02 59.513m119.005-59.513h59.513m-59.513 0 .021 59.513m59.492-59.513h59.513m-59.513 0 .021 59.513m59.492-59.513h59.513m-59.513 0 .021 59.513m59.492-59.513h59.513m-59.513 0 .021 59.513m59.492-59.513h59.512m-59.512 0 .02 59.513m59.492-59.513.021 59.513m-357.077 0H1.012m59.512 0h59.513m-59.513 0 .021 59.512M1.012 178.731l.02 59.512m119.005-59.512h59.513m-59.513 0 .021 59.512m59.492-59.512h59.513m-59.513 0 .021 59.512m59.492-59.512h59.513m-59.513 0 .021 59.512m59.492-59.512h59.512m-59.512 0 .021 59.512m59.491-59.512h59.513m-59.513 0 .021 59.512m59.492-59.512.021 59.512m-357.077 0H1.032m59.513 0h59.513m-59.513 0 .021 59.513M1.032 238.243l.021 59.513m119.005-59.513h59.513m-59.513 0 .021 59.513m59.492-59.513h59.513m-59.513 0 .021 59.513m59.492-59.513h59.513m-59.513 0 .021 59.513m59.492-59.513h59.512m-59.512 0 .02 59.513m59.492-59.513h59.513m-59.513 0 .021 59.513m59.492-59.513.021 59.513m-357.077 0H1.053m59.513 0h59.513m-59.513 0 .021 59.513M1.053 297.756l.021 59.513m119.005-59.513h59.513m-59.513 0 .021 59.513m59.492-59.513h59.513m-59.513 0 .021 59.513m59.492-59.513h59.512m-59.512 0 .02 59.513m59.492-59.513h59.513m-59.513 0 .021 59.513m59.492-59.513h59.513m-59.513 0 .021 59.513m59.492-59.513.021 59.513m-357.077 0H1.074m59.513 0H120.1m-59.513 0 .02 59.513M1.075 357.269l.021 59.513h59.513m59.492-59.513h59.513m-59.513 0 .021 59.513m59.492-59.513h59.512m-59.512 0 .021 59.513m59.491-59.513h59.513m-59.513 0 .021 59.513m59.492-59.513h59.513m-59.513 0 .021 59.513m59.492-59.513h59.513m-59.513 0 .021 59.513m59.492-59.513.021 59.513h-59.513m-297.564 0h59.513m0 0h59.513m0 0h59.512m0 0h59.513m0 0h59.513"/></g><path fill="#fff" d="M159.365 206.335c12.14-2.669 22.154-14.164 22.148-31.403-.007-18.261-12.54-34.885-37.01-34.885H91.329c-9.245 0-14.45 5.545-14.447 15.394l.037 105.893c.004 10.048 5.213 15.593 14.458 15.593h55.297c24.47 0 37.378-16.416 37.371-36.938-.006-17.239-11.001-31.403-24.68-33.654Zm-55.113-41.491h34.289c9.254 0 15.029 6.567 15.032 14.978.003 8.827-5.767 15.185-15.022 15.185h-34.289l-.01-30.163Zm35.282 87.286h-35.252l-.011-32.256h35.251c10.792 0 16.577 7.389 16.58 16.009.004 9.849-6.164 16.247-16.568 16.247Zm178.101-113.571a23.692 23.692 0 0 0-22.222 15.375l-28.174 71.465-28.006-71.465a23.948 23.948 0 0 0-26.656-15.013 23.938 23.938 0 0 0-19.652 23.434l.035 101.479a14.884 14.884 0 0 0 14.824 14.581 14.608 14.608 0 0 0 14.447-14.581l-.03-85.431 37.288 94.675a8.405 8.405 0 0 0 12.555 3.873 8.394 8.394 0 0 0 3.087-3.873l37.212-94.675.03 85.431a14.723 14.723 0 0 0 24.99 10.16 14.711 14.711 0 0 0 4.439-10.16l-.036-101.45a23.928 23.928 0 0 0-24.131-23.825Z"/></g><defs><linearGradient id="c" x1="209.671" x2="210.354" y1="408.976" y2="-6.471" gradientUnits="userSpaceOnUse"><stop stop-color="#0064F2"/><stop offset="1" stop-color="#057EFE"/></linearGradient><clipPath id="a"><path fill="#fff" d="M0 0h418v417H0z"/></clipPath></defs></svg>
